<svg width="21" height="19" viewBox="0 0 21 19" fill="none" xmlns="http://www.w3.org/2000/svg">
<path fill-rule="evenodd" clip-rule="evenodd" d="M10.302 1.62177C11.4288 0.583357 12.8962 0 14.428 0C16.0821 0 17.6611 0.680196 18.8173 1.87904C19.9652 3.0684 20.6042 4.67168 20.6042 6.33671C20.6042 8.0018 19.9651 9.60518 18.8173 10.7944C18.054 11.5856 17.292 12.3947 16.526 13.208C14.9701 14.8601 13.3976 16.5298 11.7641 18.1029L11.7603 18.1066C10.9179 18.9059 9.58381 18.8769 8.77738 18.041L1.78632 10.7943C-0.595441 8.32543 -0.595441 4.34803 1.78632 1.87915C4.11705 -0.53682 7.87021 -0.62261 10.302 1.62177Z" fill="#D896FF"/>
</svg>
