<svg width="39" height="39" viewBox="0 0 39 39" fill="none" xmlns="http://www.w3.org/2000/svg">
<g clip-path="url(#clip0_840_4365)">
<path d="M19.5 0C30.2698 0 39 8.73015 39 19.5C39 30.2698 30.2698 39 19.5 39C8.73015 39 0 30.2698 0 19.5C0 8.73015 8.73015 0 19.5 0ZM19.5 2.72025C15.0497 2.72025 10.7817 4.48811 7.63493 7.63493C4.48811 10.7817 2.72025 15.0497 2.72025 19.5C2.72025 23.9503 4.48811 28.2183 7.63493 31.3651C10.7817 34.5119 15.0497 36.2798 19.5 36.2798C23.9503 36.2798 28.2183 34.5119 31.3651 31.3651C34.5119 28.2183 36.2798 23.9503 36.2798 19.5C36.2798 15.0497 34.5119 10.7817 31.3651 7.63493C28.2183 4.48811 23.9503 2.72025 19.5 2.72025ZM17.6865 10.8829C18.4373 10.8829 19.0457 11.4933 19.0457 12.2441V21.7678H28.5695C28.9213 21.7812 29.2542 21.9303 29.4984 22.1839C29.7426 22.4375 29.879 22.7759 29.879 23.128C29.879 23.48 29.7426 23.8184 29.4984 24.072C29.2542 24.3256 28.9213 24.4748 28.5695 24.4881H17.6865C17.3258 24.4871 16.9802 24.3433 16.7252 24.0883C16.4702 23.8333 16.3264 23.4877 16.3254 23.127V12.246C16.3254 11.4933 16.9338 10.8829 17.6865 10.8829Z" fill="#D896FF"/>
</g>
<defs>
<clipPath id="clip0_840_4365">
<rect width="39" height="39" fill="white"/>
</clipPath>
</defs>
</svg>
