<svg width="149" height="37" viewBox="0 0 149 37" fill="none" xmlns="http://www.w3.org/2000/svg">
<g clip-path="url(#clip0_932_5030)">
<path d="M24.9004 0V10.0694V17.9087V28.3836H34.4232V0H24.9004Z" fill="white"/>
<path d="M6.52832 0V10.0694V17.9087V28.3836H16.0511V0H6.52832Z" fill="white"/>
<path d="M56.5314 8.41394C58.584 10.171 59.5935 12.8404 59.5935 16.4559V28.3838H51.1138V25.4779C50.0707 27.708 47.9844 28.7893 44.855 28.7893C43.1052 28.7893 41.6247 28.4852 40.3796 27.877C39.1682 27.2687 38.2261 26.4578 37.5867 25.4103C36.9474 24.3628 36.6445 23.2139 36.6445 21.8961C36.6445 19.6998 37.4858 18.0441 39.1346 16.8952C40.7834 15.7464 43.3408 15.2057 46.7394 15.2057H50.4072C50.1043 13.4824 48.7247 12.6039 46.2346 12.6039C45.2252 12.6039 44.2157 12.7728 43.2062 13.077C42.1967 13.3811 41.3218 13.8203 40.5815 14.361L37.6877 8.31257C38.9663 7.5354 40.4806 6.92718 42.264 6.45412C44.0474 6.01485 45.8308 5.77832 47.6143 5.77832C51.484 5.77832 54.4451 6.65686 56.4977 8.38015L56.5314 8.41394ZM49.3304 22.7409C49.8351 22.403 50.2053 21.8623 50.4745 21.1528V19.5984H48.22C46.3692 19.5984 45.4271 20.2066 45.4271 21.4569C45.4271 21.9637 45.6289 22.403 45.9991 22.7409C46.4029 23.0788 46.9076 23.2477 47.5806 23.2477C48.2536 23.2477 48.792 23.0788 49.3304 22.7071V22.7409Z" fill="white"/>
<path d="M86.3781 19.4289H71.034C71.3705 20.2736 71.9089 20.9156 72.6492 21.3549C73.3894 21.7942 74.3316 22.0307 75.4757 22.0307C76.4515 22.0307 77.2591 21.8955 77.9321 21.659C78.6051 21.4225 79.3117 20.9832 80.0857 20.4088L84.8639 25.2407C82.7104 27.606 79.48 28.8225 75.2065 28.8225C72.5482 28.8225 70.1927 28.3156 68.1738 27.3357C66.1548 26.3558 64.6069 24.9704 63.4965 23.2133C62.3861 21.4563 61.8477 19.4965 61.8477 17.3001C61.8477 15.1038 62.3861 13.1102 63.4965 11.3531C64.5733 9.596 66.0875 8.2444 67.9719 7.26449C69.8562 6.28458 72.0098 5.81152 74.3653 5.81152C76.5861 5.81152 78.6388 6.25079 80.4895 7.16312C82.3402 8.04166 83.7871 9.35947 84.8976 11.0828C85.9744 12.806 86.5464 14.8672 86.5464 17.3001C86.5464 17.4353 86.5127 18.1449 86.4118 19.4627L86.3781 19.4289ZM72.0771 12.806C71.4714 13.3129 71.0676 14.0563 70.8657 15.0024H77.9658C77.7639 14.0901 77.3601 13.3467 76.7544 12.8398C76.1487 12.2992 75.3411 12.0627 74.3989 12.0627C73.4567 12.0627 72.6828 12.333 72.0435 12.8398L72.0771 12.806Z" fill="white"/>
<path d="M105.188 5.81152V13.9211C104.448 13.8197 103.775 13.7522 103.169 13.7522C100.04 13.7522 98.4921 15.3403 98.4921 18.5503V28.417H89.373V6.217H98.0546V8.61609C99.6698 6.75764 102.059 5.81152 105.188 5.81152Z" fill="white"/>
<path d="M121.374 21.8625C120.802 21.8625 120.365 21.6597 119.994 21.288C119.658 20.9163 119.456 20.3757 119.456 19.6999V14.0908H123.965V7.40036H119.456V1.2168H110.337V7.43415H107.309V14.1246H110.337V19.8013C110.337 22.8086 111.178 25.0387 112.827 26.5593C114.51 28.046 116.865 28.8232 119.961 28.8232C121.273 28.8232 122.384 28.688 123.393 28.4515V21.5246C122.72 21.8625 122.114 21.8962 121.34 21.8962L121.374 21.8625Z" fill="white"/>
<path d="M125.85 28.384V23.1128L134.969 12.9082H126.152V6.21777H146.477V11.489L131.368 28.384" fill="white"/>
<path d="M34.4234 21.7606C30.8229 21.7606 28.8376 21.051 27.2561 20.4766C25.9774 20.0036 25.0689 19.6994 22.949 19.6994C20.829 19.6994 19.8869 20.0373 18.6418 20.4766C17.0603 21.051 15.075 21.7606 11.4745 21.7606C7.87398 21.7606 5.88866 21.051 4.30714 20.4766C3.02846 20.0036 2.11992 19.6994 0 19.6994V11.252C3.6005 11.252 5.58582 11.9615 7.16734 12.536C8.44602 13.009 9.35456 13.3131 11.4745 13.3131C13.5944 13.3131 14.5366 12.9752 15.7816 12.536C17.3631 11.9615 19.3485 11.252 22.949 11.252C26.5495 11.252 28.5348 11.9615 30.1163 12.536C31.395 13.009 32.3035 13.3131 34.4234 13.3131V21.7606Z" fill="#D36DF5"/>
<path d="M34.4234 19.2938C30.8229 19.2938 28.8376 18.5842 27.2561 18.0098C25.9774 17.5368 25.0689 17.2326 22.949 17.2326C20.829 17.2326 19.8869 17.5705 18.6418 18.0098C17.0603 18.5842 15.075 19.2938 11.4745 19.2938C7.87398 19.2938 5.88866 18.5842 4.30714 18.0098C3.02846 17.5368 2.11992 17.2326 0 17.2326V8.78516C3.6005 8.78516 5.58582 9.49475 7.16734 10.0692C8.44602 10.5422 9.35456 10.8463 11.4745 10.8463C13.5944 10.8463 14.5366 10.5084 15.7816 10.0692C17.3631 9.49475 19.3485 8.78516 22.949 8.78516C26.5495 8.78516 28.5348 9.49475 30.1163 10.0692C31.395 10.5422 32.3035 10.8463 34.4234 10.8463V19.2938Z" fill="white"/>
<mask id="mask0_932_5030" style="mask-type:luminance" maskUnits="userSpaceOnUse" x="125" y="7" width="24" height="30">
<path d="M125.883 37H149V7.67032L125.883 7.67032V37Z" fill="white"/>
</mask>
<g mask="url(#mask0_932_5030)">
<path d="M149 18.9555C148.192 18.8541 147.62 18.6852 146.914 18.4149C145.534 17.908 143.852 17.2998 140.722 17.2998C137.593 17.2998 135.91 17.908 134.531 18.4149C133.521 18.7866 132.848 19.0231 131.166 19.0231C129.483 19.0231 128.844 18.7866 127.801 18.4149C126.421 17.908 124.739 17.2998 121.609 17.2998V25.7473C123.258 25.7473 123.931 25.9838 124.974 26.3555C126.354 26.8624 128.036 27.4706 131.166 27.4706C134.295 27.4706 135.978 26.8624 137.357 26.3555C138.367 25.9838 139.04 25.7473 140.722 25.7473C142.405 25.7473 143.044 25.9838 144.054 26.3555C145.231 26.761 146.678 27.2678 148.966 27.403V18.9555H149Z" fill="#D36DF5"/>
<path d="M149 21.1176C148.192 21.0163 147.62 20.8473 146.914 20.577C145.534 20.0701 143.852 19.4619 140.722 19.4619C137.593 19.4619 135.91 20.0701 134.531 20.577C133.521 20.9487 132.848 21.1852 131.166 21.1852C129.483 21.1852 128.844 20.9487 127.801 20.577C126.421 20.0701 124.739 19.4619 121.609 19.4619V27.9094C123.258 27.9094 123.931 28.1459 124.974 28.5176C126.354 29.0245 128.036 29.6327 131.166 29.6327C134.295 29.6327 135.978 29.0245 137.357 28.5176C138.367 28.1459 139.04 27.9094 140.722 27.9094C142.405 27.9094 143.044 28.1459 144.054 28.5176C145.231 28.9231 146.678 29.4299 148.966 29.5651V21.1176H149Z" fill="white"/>
</g>
</g>
<defs>
<clipPath id="clip0_932_5030">
<rect width="149" height="37" fill="white"/>
</clipPath>
</defs>
</svg>
