<svg width="234" height="58" viewBox="0 0 234 58" fill="none" xmlns="http://www.w3.org/2000/svg">
<g clip-path="url(#clip0_539_799)">
<path d="M39.1055 0V15.7845V28.0731V44.4931H54.0608V0H39.1055Z" fill="#D896FF"/>
<path d="M10.252 0V15.7845V28.0731V44.4931H25.2072V0H10.252Z" fill="#D896FF"/>
<path d="M88.7805 13.1891C92.0041 15.9435 93.5895 20.1279 93.5895 25.7955V44.4932H80.2724V39.938C78.6342 43.4339 75.3578 45.1289 70.4431 45.1289C67.6952 45.1289 65.37 44.6521 63.4147 43.6987C61.5122 42.7453 60.0326 41.4741 59.0285 39.832C58.0244 38.19 57.5488 36.3891 57.5488 34.3234C57.5488 30.8804 58.87 28.285 61.4594 26.4841C64.0488 24.6832 68.0651 23.8357 73.4025 23.8357H79.1626C78.687 21.1343 76.5204 19.7572 72.6098 19.7572C71.0244 19.7572 69.4391 20.022 67.8537 20.4987C66.2683 20.9754 64.8944 21.664 63.7318 22.5115L59.187 13.0302C61.1952 11.812 63.5732 10.8585 66.374 10.117C69.1748 9.42839 71.9757 9.05762 74.7765 9.05762C80.8537 9.05762 85.5041 10.4348 88.7277 13.1362L88.7805 13.1891ZM77.4716 35.6476C78.2643 35.1179 78.8456 34.2704 79.2683 33.1581V30.7215H75.7277C72.8212 30.7215 71.3415 31.675 71.3415 33.6348C71.3415 34.4293 71.6586 35.1179 72.2399 35.6476C72.874 36.1773 73.6667 36.4421 74.7236 36.4421C75.7805 36.4421 76.6261 36.1773 77.4716 35.5946V35.6476Z" fill="#D896FF"/>
<path d="M135.654 30.4565H111.557C112.085 31.7807 112.931 32.7871 114.093 33.4757C115.256 34.1642 116.736 34.535 118.532 34.535C120.065 34.535 121.333 34.3231 122.39 33.9524C123.447 33.5816 124.557 32.893 125.772 31.9925L133.276 39.567C129.894 43.2747 124.821 45.1816 118.11 45.1816C113.935 45.1816 110.236 44.3871 107.065 42.851C103.894 41.3149 101.463 39.1432 99.7193 36.3889C97.9754 33.6346 97.1299 30.5624 97.1299 27.1195C97.1299 23.6766 97.9754 20.5514 99.7193 17.7971C101.41 15.0428 103.788 12.9241 106.748 11.388C109.707 9.8519 113.089 9.11035 116.788 9.11035C120.276 9.11035 123.5 9.79894 126.406 11.2291C129.313 12.6062 131.585 14.672 133.329 17.3734C135.02 20.0747 135.919 23.3058 135.919 27.1195C135.919 27.3314 135.866 28.4437 135.707 30.5094L135.654 30.4565ZM113.195 20.0747C112.244 20.8693 111.61 22.0346 111.292 23.5177H122.443C122.126 22.0875 121.492 20.9222 120.54 20.1277C119.589 19.2802 118.321 18.9094 116.841 18.9094C115.362 18.9094 114.146 19.3332 113.142 20.1277L113.195 20.0747Z" fill="#D896FF"/>
<path d="M165.195 9.11035V21.8227C164.033 21.6638 162.976 21.5578 162.025 21.5578C157.11 21.5578 154.679 24.0473 154.679 29.0793V44.546H140.358V9.74597H153.992V13.5067C156.529 10.5935 160.281 9.11035 165.195 9.11035Z" fill="#D896FF"/>
<path d="M190.614 34.2702C189.715 34.2702 189.028 33.9524 188.447 33.3698C187.919 32.7871 187.602 31.9396 187.602 30.8803V22.0876H194.683V11.5999H187.602V1.90674H173.281V11.6529H168.524V22.1405H173.281V31.0392C173.281 35.7533 174.602 39.2492 177.191 41.6328C179.833 43.9634 183.533 45.1816 188.394 45.1816C190.455 45.1816 192.199 44.9698 193.785 44.599V33.7405C192.728 34.2702 191.776 34.3232 190.561 34.3232L190.614 34.2702Z" fill="#D896FF"/>
<path d="M197.642 44.4931V36.2301L211.963 20.2338H198.118V9.74609H230.036V18.0091L206.309 44.4931" fill="#D896FF"/>
<path d="M54.061 34.1112C48.4065 34.1112 45.2886 32.9989 42.8049 32.0985C40.7968 31.3569 39.3699 30.8802 36.0407 30.8802C32.7114 30.8802 31.2317 31.4099 29.2764 32.0985C26.7927 32.9989 23.6748 34.1112 18.0203 34.1112C12.3659 34.1112 9.24797 32.9989 6.76423 32.0985C4.7561 31.3569 3.32927 30.8802 0 30.8802V17.6382C5.65447 17.6382 8.77236 18.7505 11.2561 19.651C13.2642 20.3925 14.6911 20.8692 18.0203 20.8692C21.3496 20.8692 22.8293 20.3396 24.7846 19.651C27.2683 18.7505 30.3862 17.6382 36.0407 17.6382C41.6951 17.6382 44.813 18.7505 47.2967 19.651C49.3049 20.3925 50.7317 20.8692 54.061 20.8692V34.1112Z" fill="white"/>
<path d="M54.061 30.2445C48.4065 30.2445 45.2886 29.1322 42.8049 28.2318C40.7968 27.4902 39.3699 27.0135 36.0407 27.0135C32.7114 27.0135 31.2317 27.5432 29.2764 28.2318C26.7927 29.1322 23.6748 30.2445 18.0203 30.2445C12.3659 30.2445 9.24797 29.1322 6.76423 28.2318C4.7561 27.4902 3.32927 27.0135 0 27.0135V13.7715C5.65447 13.7715 8.77236 14.8838 11.2561 15.7843C13.2642 16.5258 14.6911 17.0025 18.0203 17.0025C21.3496 17.0025 22.8293 16.4729 24.7846 15.7843C27.2683 14.8838 30.3862 13.7715 36.0407 13.7715C41.6951 13.7715 44.813 14.8838 47.2967 15.7843C49.3049 16.5258 50.7317 17.0025 54.061 17.0025V30.2445Z" fill="#D896FF"/>
<mask id="mask0_539_799" style="mask-type:luminance" maskUnits="userSpaceOnUse" x="197" y="12" width="37" height="46">
<path d="M197.695 58L234 58V12.0237L197.695 12.0237V58Z" fill="white"/>
</mask>
<g mask="url(#mask0_539_799)">
<path d="M234 29.7151C232.732 29.5562 231.833 29.2913 230.724 28.8676C228.557 28.0731 225.915 27.1196 221 27.1196C216.086 27.1196 213.443 28.0731 211.277 28.8676C209.691 29.4502 208.634 29.821 205.992 29.821C203.35 29.821 202.346 29.4502 200.707 28.8676C198.541 28.0731 195.899 27.1196 190.984 27.1196V40.3616C193.573 40.3616 194.63 40.7324 196.268 41.3151C198.435 42.1096 201.077 43.063 205.992 43.063C210.907 43.063 213.549 42.1096 215.716 41.3151C217.301 40.7324 218.358 40.3616 221 40.3616C223.642 40.3616 224.646 40.7324 226.232 41.3151C228.081 41.9507 230.354 42.7452 233.947 42.9571V29.7151H234Z" fill="white"/>
<path d="M234 33.1052C232.732 32.9463 231.833 32.6815 230.724 32.2577C228.557 31.4632 225.915 30.5098 221 30.5098C216.086 30.5098 213.443 31.4632 211.277 32.2577C209.691 32.8404 208.634 33.2111 205.992 33.2111C203.35 33.2111 202.346 32.8404 200.707 32.2577C198.541 31.4632 195.899 30.5098 190.984 30.5098V43.7518C193.573 43.7518 194.63 44.1225 196.268 44.7052C198.435 45.4997 201.077 46.4531 205.992 46.4531C210.907 46.4531 213.549 45.4997 215.716 44.7052C217.301 44.1225 218.358 43.7518 221 43.7518C223.642 43.7518 224.646 44.1225 226.232 44.7052C228.081 45.3408 230.354 46.1353 233.947 46.3472V33.1052H234Z" fill="#D896FF"/>
</g>
</g>
<defs>
<clipPath id="clip0_539_799">
<rect width="234" height="58" fill="white"/>
</clipPath>
</defs>
</svg>
